<svg xmlns="http://www.w3.org/2000/svg" xmlns:xlink="http://www.w3.org/1999/xlink" version="1.2" viewBox="273.3 390.66 374.06 450.09">
<defs>
<clipPath id="clip1">
  <path d="M 328.5 613.027344 L 647.359375 613.027344 L 647.359375 840.738281 L 328.5 840.738281 Z M 328.5 613.027344 "/>
</clipPath>
</defs>
<g id="surface1">
<path style=" stroke:none;fill-rule:nonzero;fill:rgb(97.24884%,70.199585%,5.099487%);fill-opacity:1;" d="M 591.285156 622.414062 C 603.125 624.820312 615.015625 627.230469 626.855469 629.6875 C 629.503906 634.984375 633.738281 645.335938 633.257812 658.769531 C 632.824219 670.953125 628.683594 680.246094 625.941406 685.351562 C 628.78125 689.398438 634.652344 698.835938 635.136719 711.933594 C 635.664062 727.007812 628.78125 737.886719 625.941406 741.835938 C 630.371094 743.523438 638.3125 747.421875 642.453125 755.128906 C 649.238281 767.792969 643.175781 786.089844 625.941406 798.320312 C 588.011719 812.191406 550.128906 826.011719 512.199219 839.878906 L 336.070312 811.660156 L 337.898438 755.175781 L 328.707031 753.492188 L 328.707031 696.957031 L 334.191406 695.269531 C 334.242188 677.023438 334.242188 658.769531 334.242188 640.472656 C 383.195312 626.988281 432.195312 613.503906 481.199219 600.023438 C 511.234375 606.140625 541.320312 612.253906 571.402344 618.371094 M 571.402344 618.371094 C 578.046875 619.71875 584.640625 621.066406 591.285156 622.414062 "/>
<path style=" stroke:none;fill-rule:nonzero;fill:rgb(15.689087%,27.059937%,58.039856%);fill-opacity:1;" d="M 337.753906 759.125 L 336.261719 805.640625 C 394.316406 815.417969 452.316406 825.144531 510.367188 834.917969 C 512.824219 831.882812 521.390625 820.472656 519.5625 805.015625 C 518.550781 796.492188 514.75 790.183594 512.246094 786.71875 Z M 328.707031 702.976562 L 328.707031 749.15625 C 386.179688 758.882812 443.652344 768.660156 501.175781 778.386719 C 503.53125 774.964844 509.019531 765.914062 508.492188 753.441406 C 508.058594 742.945312 503.53125 735.289062 501.175781 731.820312 Z M 504.832031 672.0625 C 506.613281 676.828125 508.730469 684.339844 508.492188 693.683594 C 508.25 703.988281 505.265625 712.078125 503.003906 716.941406 C 446.734375 707.601562 390.464844 698.257812 334.242188 688.964844 L 334.242188 645.625 L 504.832031 672.0625 "/>
<path style=" stroke:none;fill-rule:nonzero;fill:rgb(97.24884%,70.199585%,5.099487%);fill-opacity:1;" d="M 517.347656 817.199219 C 509.5 818.640625 501.316406 815.753906 493.714844 814.066406 C 486.253906 812.429688 478.839844 810.890625 471.378906 809.300781 C 456.890625 806.21875 442.402344 802.992188 427.863281 800.007812 C 413.761719 797.070312 399.609375 794.226562 385.359375 791.773438 C 377.851562 790.472656 370.34375 789.222656 362.785156 788.0625 C 355.996094 787.003906 348.683594 785.222656 341.796875 785.511719 C 339.199219 785.609375 338.621094 789.316406 341.171875 790.089844 C 348.34375 792.253906 356.335938 792.496094 363.75 793.601562 C 371.304688 794.757812 378.8125 795.960938 386.324219 797.261719 C 401.726562 799.910156 417.128906 802.75 432.484375 805.738281 C 447.457031 808.628906 462.425781 811.613281 477.347656 814.550781 C 484.808594 815.992188 492.316406 817.488281 499.828125 818.785156 C 505.890625 819.847656 511.8125 820.859375 517.683594 818.640625 C 518.648438 818.304688 518.308594 817.054688 517.347656 817.199219 Z M 518.457031 799.523438 C 503.871094 796.828125 488.996094 795.625 474.316406 793.601562 C 459.585938 791.578125 444.855469 789.367188 430.175781 787.054688 C 400.957031 782.429688 371.546875 778.242188 342.710938 771.691406 C 340.257812 771.113281 339.246094 774.726562 341.652344 775.496094 C 355.660156 779.976562 370.488281 781.851562 384.976562 784.164062 C 400.089844 786.574219 415.15625 788.980469 430.316406 791.195312 C 459.199219 795.433594 488.996094 801.066406 518.261719 801.304688 C 519.175781 801.304688 519.464844 799.71875 518.457031 799.523438 Z M 507.914062 763.652344 C 493.90625 759.703125 479.128906 757.726562 464.785156 755.222656 C 449.910156 752.625 435.085938 750.023438 420.210938 747.566406 C 405.722656 745.207031 391.234375 742.753906 376.746094 740.441406 C 362.546875 738.175781 348.105469 734.808594 333.757812 733.84375 C 331.207031 733.648438 330.726562 737.648438 333.183594 738.273438 C 347.238281 741.933594 362.207031 743.378906 376.550781 745.738281 C 391.472656 748.195312 406.347656 750.554688 421.269531 752.960938 C 435.808594 755.320312 450.34375 757.484375 464.878906 759.652344 C 479.03125 761.820312 493.425781 764.566406 507.71875 765.238281 C 508.585938 765.289062 508.777344 763.890625 507.914062 763.652344 Z M 502.859375 741.886719 C 445.433594 730.085938 386.996094 722.527344 328.65625 717.132812 C 325.238281 716.796875 325.238281 722.140625 328.65625 722.480469 C 386.851562 727.871094 444.757812 735.480469 502.667969 743.183594 C 503.4375 743.28125 503.582031 742.03125 502.859375 741.886719 Z M 506.324219 697.632812 C 492.703125 694.789062 478.550781 693.828125 464.785156 691.855469 C 450.921875 689.878906 437.105469 687.710938 423.292969 685.304688 C 395.757812 680.539062 368.367188 674.757812 341.027344 668.882812 C 337.898438 668.210938 336.550781 672.976562 339.679688 673.699219 C 367.261719 680.390625 395.179688 685.59375 423.195312 690.023438 C 436.433594 692.09375 449.71875 693.972656 463.003906 695.707031 C 477.15625 697.535156 491.691406 699.941406 505.941406 699.941406 C 507.335938 699.941406 507.671875 697.917969 506.324219 697.632812 Z M 505.21875 683.136719 C 506.421875 683.328125 506.085938 685.253906 504.929688 685.207031 C 477.25 683.808594 449.378906 679.042969 422.039062 674.949219 C 407.742188 672.832031 393.449219 670.519531 379.199219 668.0625 C 372.460938 666.910156 365.769531 665.707031 359.078125 664.453125 C 352.242188 663.152344 344.394531 662.574219 337.945312 659.878906 C 336.261719 659.203125 336.359375 656.554688 338.378906 656.554688 C 345.214844 656.554688 352.292969 658.867188 358.980469 660.167969 C 365.675781 661.46875 372.363281 662.71875 379.054688 663.972656 C 392.871094 666.523438 406.683594 668.929688 420.546875 671.195312 C 448.707031 675.722656 477.15625 678.371094 505.21875 683.136719 "/>
<g clip-path="url(#clip1)" clip-rule="nonzero">
<path style=" stroke:none;fill-rule:nonzero;fill:rgb(15.689087%,27.059937%,58.039856%);fill-opacity:1;" d="M 626.761719 797.453125 C 626.230469 797.214844 625.605469 797.117188 624.835938 797.3125 C 609.191406 800.96875 593.546875 806.988281 578.335938 812.960938 C 583.390625 799.476562 585.414062 781.851562 577.515625 769.765625 C 577.324219 769.429688 576.988281 769.285156 576.601562 769.238281 C 594.941406 762.882812 613.136719 756.1875 630.996094 748.53125 C 632.007812 748.097656 632.34375 747.085938 632.152344 746.171875 C 640.625 752.335938 642.402344 763.3125 640.769531 773.089844 C 639.035156 783.296875 634.027344 790.425781 626.761719 797.453125 Z M 550.800781 823.699219 C 554.941406 809.15625 555.761719 792.6875 549.984375 778.53125 C 558.261719 775.6875 566.496094 772.65625 574.582031 769.863281 C 574.871094 769.765625 575.109375 769.667969 575.398438 769.574219 C 575.253906 769.765625 575.160156 770.007812 575.160156 770.34375 C 575.496094 777.613281 577.085938 784.644531 576.601562 792.015625 C 576.074219 799.960938 574.003906 807.761719 570.492188 814.886719 C 570.296875 815.269531 570.199219 815.707031 570.152344 816.042969 C 569.382812 816.332031 568.660156 816.621094 567.890625 816.910156 C 562.210938 819.171875 556.480469 821.433594 550.800781 823.699219 Z M 633.355469 743.183594 C 632.199219 742.753906 631.476562 743.667969 631.429688 744.582031 C 630.851562 743.957031 630.035156 743.570312 629.070312 743.957031 C 610.152344 751.273438 591.332031 758.789062 572.222656 765.625 C 562.644531 769.09375 553.0625 772.414062 543.390625 775.59375 C 533.761719 778.820312 523.75 781.421875 514.414062 785.320312 C 512.726562 786.042969 513.304688 788.5 515.179688 788.113281 C 525.722656 786.1875 536.214844 783.058594 546.613281 779.589844 C 548.445312 795.046875 548.828125 809.398438 544.0625 824.46875 C 543.871094 825.144531 543.871094 825.769531 544.0625 826.300781 C 534.003906 830.34375 524.039062 834.4375 514.121094 838.820312 C 513.0625 839.300781 513.832031 841.082031 514.894531 840.695312 C 533.328125 834.003906 551.765625 827.261719 570.34375 821.097656 C 588.828125 814.933594 608.226562 809.972656 626.277344 802.65625 C 626.664062 802.511719 627 802.269531 627.289062 802.027344 C 628.109375 802.511719 629.117188 802.609375 630.082031 802.027344 C 647.265625 792.015625 656.894531 751.707031 633.355469 743.183594 Z M 486.011719 627.46875 C 497.035156 629.347656 508.105469 632.816406 518.792969 635.945312 C 520.863281 636.570312 520.574219 640.085938 518.261719 639.847656 C 507 638.785156 495.109375 637.148438 484.421875 633.296875 C 480.71875 631.996094 482.207031 626.84375 486.011719 627.46875 Z M 489.621094 613.457031 C 510.417969 618.5625 531.066406 624.195312 552.054688 628.625 C 553.351562 628.914062 553.0625 631.082031 551.71875 630.984375 C 530.25 629.636719 508.394531 626.316406 487.9375 619.429688 C 484.183594 618.175781 485.722656 612.496094 489.621094 613.457031 Z M 514.027344 749.78125 C 513.785156 741.019531 512.34375 731.582031 505.167969 726.042969 C 510.464844 724.644531 516.046875 724.261719 521.4375 722.769531 C 526.0625 721.515625 530.679688 720.214844 535.300781 719.011719 C 543.917969 716.699219 552.582031 714.4375 561.246094 712.222656 C 562.257812 719.445312 565.242188 726.332031 566.253906 733.648438 C 567.363281 741.644531 567.167969 749.589844 566.15625 757.632812 C 565.53125 757.871094 564.953125 758.066406 564.328125 758.304688 C 554.703125 761.773438 545.171875 765.433594 535.734375 769.429688 C 526.492188 773.332031 517.203125 776.410156 507.816406 779.734375 C 513.546875 770.828125 514.316406 760.132812 514.027344 749.78125 Z M 565.4375 711.117188 C 575.589844 708.464844 585.941406 706.25 596.242188 703.84375 C 598.410156 709.8125 601.25 715.253906 602.5 721.613281 C 603.992188 729.269531 603.800781 736.925781 602.066406 744.484375 C 602.019531 744.679688 602.019531 744.824219 602.019531 744.964844 C 591.765625 748.386719 581.609375 751.996094 571.453125 755.609375 C 572.175781 747.953125 571.886719 740.25 570.585938 732.6875 C 569.382812 725.703125 567.601562 717.421875 563.269531 711.644531 C 563.941406 711.5 564.714844 711.308594 565.4375 711.117188 Z M 534.675781 774.148438 C 544.542969 770.246094 554.410156 766.445312 564.425781 762.882812 C 584.882812 755.558594 605.726562 749.636719 626.277344 742.753906 C 626.808594 742.558594 627.191406 742.316406 627.480469 741.933594 C 628.445312 742.222656 629.550781 741.980469 630.320312 740.777344 C 635.234375 732.976562 637.398438 722.769531 636.964844 713.617188 C 636.628906 706.828125 635.472656 696.570312 629.359375 692.574219 C 628.445312 691.996094 627.191406 693.199219 627.820312 694.117188 C 636.386719 706.585938 631.621094 724.980469 626.085938 737.648438 C 625.703125 737.601562 625.316406 737.601562 624.882812 737.742188 C 619.152344 739.476562 613.425781 741.308594 607.746094 743.136719 C 609.816406 729.992188 608.082031 713.378906 598.890625 703.265625 C 607.988281 701.144531 617.035156 698.835938 625.847656 696.042969 C 628.636719 695.125 627.480469 691.273438 624.644531 691.707031 C 604.328125 694.984375 584.109375 701.628906 564.234375 706.972656 C 554.21875 709.671875 544.207031 712.460938 534.242188 715.304688 C 529.621094 716.605469 525.050781 717.953125 520.429688 719.253906 C 514.988281 720.84375 510.03125 723.492188 504.6875 725.128906 C 504.496094 725.175781 504.398438 725.320312 504.351562 725.511719 C 504.160156 725.367188 503.964844 725.222656 503.773438 725.078125 C 502.523438 724.261719 501.511719 725.996094 502.328125 726.957031 C 508.25 734.421875 509.019531 743.378906 508.828125 752.574219 C 508.683594 761.820312 507.433594 770.535156 501.800781 778.097656 C 499.730469 780.890625 503.871094 783.632812 506.277344 781.707031 C 506.371094 781.757812 506.515625 781.804688 506.710938 781.804688 C 516.339844 781.757812 525.867188 777.613281 534.675781 774.148438 Z M 500.835938 726.089844 C 472.582031 721.851562 444.421875 716.894531 416.117188 712.945312 C 387.71875 708.949219 358.933594 705.960938 330.679688 700.761719 C 327.886719 700.230469 328.511719 695.511719 331.351562 695.800781 C 359.753906 698.496094 388.199219 703.3125 416.359375 707.648438 C 444.757812 711.980469 473.59375 716.507812 501.175781 724.789062 C 502.136719 724.980469 501.703125 726.1875 500.835938 726.089844 Z M 621.898438 681.113281 C 621.371094 682.222656 621.515625 683.234375 622.042969 683.957031 C 611.984375 685.398438 601.96875 688.484375 592.101562 690.9375 C 581.898438 693.441406 571.789062 696.234375 561.679688 699.078125 C 551.574219 701.917969 541.464844 704.804688 531.402344 707.695312 C 530.96875 707.792969 530.585938 707.9375 530.152344 708.03125 C 530.441406 706.441406 530.394531 704.757812 530.488281 702.976562 C 530.777344 698.066406 530.96875 693.105469 530.875 688.144531 C 530.679688 681.835938 530.296875 671.917969 525.433594 667.101562 C 559.371094 657.183594 593.402344 646.152344 625.410156 631.46875 C 631.667969 646.828125 628.78125 666.332031 621.898438 681.113281 Z M 503.824219 668.882812 C 501.269531 669.605469 502.328125 673.601562 504.929688 672.878906 C 510.847656 671.195312 516.769531 669.507812 522.691406 667.777344 C 522.015625 673.457031 524.230469 679.910156 524.28125 685.640625 C 524.328125 689.15625 524.230469 692.621094 524.085938 696.089844 C 523.941406 699.414062 524.421875 704.46875 523.316406 707.746094 C 523.269531 707.886719 523.21875 708.082031 523.171875 708.226562 L 523.171875 708.273438 C 523.078125 708.660156 523.078125 709.089844 523.125 709.527344 C 516.238281 711.015625 509.164062 712.414062 503.148438 715.398438 C 502.183594 715.882812 502.621094 717.566406 503.726562 717.472656 C 510.847656 716.941406 518.070312 714.339844 525.144531 712.125 C 526.347656 712.558594 527.792969 712.367188 528.613281 711.402344 C 528.707031 711.257812 528.804688 711.117188 528.898438 710.96875 C 530.007812 710.679688 531.066406 710.34375 532.171875 710.101562 C 542.378906 707.648438 552.632812 705.289062 562.882812 702.929688 C 573.136719 700.617188 583.390625 698.304688 593.59375 695.898438 C 603.75 693.488281 614.339844 691.707031 624.207031 688.433594 C 624.785156 688.242188 625.21875 687.902344 625.507812 687.566406 C 626.085938 687.230469 626.46875 686.652344 626.46875 685.976562 C 626.46875 685.835938 626.46875 685.6875 626.46875 685.496094 C 626.46875 685.113281 626.328125 684.726562 626.085938 684.390625 C 626.46875 684.101562 626.761719 683.667969 627 683.089844 C 630.851562 673.457031 633.257812 663.539062 633.355469 653.136719 C 633.449219 645.09375 633.164062 634.691406 627.191406 628.625 C 626.277344 627.710938 625.125 628.433594 624.929688 629.445312 C 605.003906 635.945312 585.414062 643.457031 565.484375 649.960938 C 544.980469 656.746094 524.472656 663.105469 503.824219 668.882812 "/>
</g>
<path style=" stroke:none;fill-rule:nonzero;fill:rgb(19.219971%,46.269226%,65.879822%);fill-opacity:1;" d="M 444.554688 464.375 C 444.554688 464.375 437.976562 464.105469 423.667969 486.910156 C 409.328125 509.710938 390.507812 538.613281 390.507812 538.613281 C 390.507812 538.613281 385.734375 550.015625 390.507812 560.089844 C 395.289062 570.167969 398.996094 573.875 398.996094 573.875 C 398.996094 573.875 413.046875 576.527344 418.074219 562.742188 C 418.074219 562.742188 412.511719 552.664062 414.621094 548.957031 C 416.765625 545.238281 433.335938 522.449219 433.335938 522.449219 C 433.335938 522.449219 459.308594 482.691406 444.554688 464.375 "/>
<path style=" stroke:none;fill-rule:nonzero;fill:rgb(14.509583%,18.03894%,10.5896%);fill-opacity:1;" d="M 273.746094 768.78125 C 273.746094 768.78125 271.632812 775.832031 276.582031 777.617188 C 281.53125 779.371094 291.421875 779.371094 299.917969 777.617188 C 308.390625 775.863281 311.933594 775.890625 318.652344 774.105469 C 325.371094 772.292969 342.863281 771.992188 342.863281 760.835938 C 342.851562 749.679688 273.746094 768.78125 273.746094 768.78125 "/>
<path style=" stroke:none;fill-rule:nonzero;fill:rgb(32.159424%,42.749023%,25.489807%);fill-opacity:1;" d="M 308.054688 746.257812 C 308.054688 746.257812 292.144531 753.933594 285.425781 757.800781 C 278.707031 761.699219 269.503906 768.066406 275.875 771.964844 C 282.242188 775.863281 297.429688 773.003906 306.277344 771.964844 C 315.117188 770.894531 334.5625 765.597656 338.804688 763.8125 C 343.046875 762.058594 342.339844 761.34375 342.699219 757.089844 C 343.046875 752.863281 342.699219 740.128906 342.699219 740.128906 L 308.054688 746.257812 "/>
<path style=" stroke:none;fill-rule:nonzero;fill:rgb(14.509583%,18.03894%,10.5896%);fill-opacity:1;" d="M 419.769531 771.964844 C 419.769531 771.964844 424.53125 775.980469 422.328125 782.792969 C 420.128906 789.636719 410.785156 793.175781 405.199219 799.871094 C 399.609375 806.59375 392.902344 809.421875 383.003906 809.777344 C 373.101562 810.136719 363.359375 809.660156 361.863281 804.75 C 360.375 799.871094 362.140625 793.535156 362.140625 793.535156 C 362.140625 793.535156 379.109375 787.496094 380.167969 786.808594 C 381.222656 786.097656 419.769531 771.964844 419.769531 771.964844 "/>
<path style=" stroke:none;fill-rule:nonzero;fill:rgb(32.159424%,42.749023%,25.489807%);fill-opacity:1;" d="M 387.371094 767.886719 C 387.371094 767.886719 364.269531 787.167969 362.140625 793.535156 C 360.015625 799.871094 370.613281 806.953125 381.582031 804.125 C 392.542969 801.300781 399.261719 799.1875 407.394531 790.679688 C 415.515625 782.199219 423.191406 780.414062 422.238281 774.105469 C 421.316406 767.769531 422.328125 760.835938 422.328125 760.835938 L 387.371094 767.886719 "/>
<path style=" stroke:none;fill-rule:nonzero;fill:rgb(8.628845%,13.729858%,19.219971%);fill-opacity:1;" d="M 460.589844 575.917969 C 460.589844 575.917969 364.40625 615.886719 353.101562 629.664062 C 341.792969 643.46875 339.980469 649.953125 337.734375 662.6875 C 335.503906 675.421875 312.808594 730.371094 309.191406 739.714844 C 305.566406 749.054688 310.027344 753.308594 321.246094 752.953125 C 332.449219 752.597656 341.628906 751.554688 344.453125 742.003906 C 347.289062 732.453125 372.308594 683.246094 375.925781 671.550781 C 375.925781 664.828125 381.851562 659.53125 387.148438 657.421875 C 392.460938 655.277344 474.574219 633.144531 476.121094 605.980469 C 477.695312 578.800781 472.25 572.386719 472.25 572.386719 L 460.589844 575.917969 "/>
<path style=" stroke:none;fill-rule:nonzero;fill:rgb(8.628845%,13.729858%,19.219971%);fill-opacity:1;" d="M 518.753906 603.660156 C 518.753906 603.660156 422.597656 643.617188 411.289062 657.421875 C 399.96875 671.195312 402.664062 677.207031 400.433594 689.9375 C 398.203125 702.644531 392.007812 751.496094 388.394531 760.835938 C 384.765625 770.179688 389.230469 774.433594 400.433594 774.078125 C 411.648438 773.71875 420.839844 772.679688 423.667969 763.097656 C 426.464844 753.578125 437.085938 710.4375 437.085938 700.53125 C 437.085938 693.835938 440.269531 689.582031 445.566406 687.441406 C 450.859375 685.328125 532.765625 660.902344 534.3125 633.707031 C 535.859375 606.546875 530.414062 600.128906 530.414062 600.128906 L 518.753906 603.660156 "/>
<path style=" stroke:none;fill-rule:nonzero;fill:rgb(16.468811%,35.688782%,51.759338%);fill-opacity:1;" d="M 478.945312 466.757812 C 478.945312 466.757812 520.179688 490.09375 523.601562 499.367188 C 527.054688 508.652344 526.25 577.058594 525.746094 595.351562 C 525.210938 613.65625 523.097656 625.320312 505.304688 624.78125 C 487.542969 624.246094 470.316406 613.921875 459.457031 610.742188 C 448.570312 607.558594 440.625 607.019531 439.824219 592.96875 C 439.019531 578.917969 432.148438 516.335938 432.414062 507.0625 C 432.683594 497.777344 435.835938 464.105469 445.921875 464.105469 C 456.007812 464.105469 478.945312 466.757812 478.945312 466.757812 "/>
<path style=" stroke:none;fill-rule:nonzero;fill:rgb(19.219971%,46.269226%,65.879822%);fill-opacity:1;" d="M 482.574219 471.023438 C 482.574219 471.023438 495.515625 474.707031 487.304688 486.109375 C 479.066406 497.519531 470.257812 502.027344 460.886719 499.367188 C 451.515625 496.71875 453.328125 482.425781 460.769531 477.773438 C 468.207031 473.117188 477.84375 468.410156 482.574219 471.023438 "/>
<path style=" stroke:none;fill-rule:nonzero;fill:rgb(16.468811%,35.688782%,51.759338%);fill-opacity:1;" d="M 480.015625 474.542969 C 480.015625 474.542969 489.714844 477.324219 483.558594 485.886719 C 477.367188 494.453125 470.734375 497.832031 463.714844 495.832031 C 456.660156 493.847656 458.03125 483.109375 463.625 479.621094 C 469.21875 476.125 476.445312 472.59375 480.015625 474.542969 "/>
<path style=" stroke:none;fill-rule:nonzero;fill:rgb(21.179199%,53.329468%,75.289917%);fill-opacity:1;" d="M 510.898438 574.410156 C 510.898438 574.410156 505.066406 535.164062 504.53125 528.003906 C 503.996094 520.847656 505.839844 498.042969 519.914062 498.042969 C 533.957031 498.042969 536.070312 528.003906 535.832031 547.367188 C 535.5625 566.71875 537.140625 602.5 537.140625 602.5 C 537.140625 602.5 540.054688 610.085938 517.265625 613.0625 C 494.445312 616.035156 467.671875 615.769531 467.671875 615.769531 C 467.671875 615.769531 455.648438 616.839844 454.222656 609.28125 C 452.824219 601.726562 455.738281 594.292969 462.640625 594.027344 C 469.515625 593.757812 509.292969 587.671875 510.898438 587.136719 C 512.476562 586.613281 511.851562 581.046875 510.898438 574.410156 "/>
<path style=" stroke:none;fill-rule:nonzero;fill:rgb(60.778809%,61.178589%,62.748718%);fill-opacity:1;" d="M 505.839844 631.449219 L 506.199219 634.71875 L 434.46875 668.21875 L 434.140625 664.917969 L 505.839844 631.449219 "/>
<path style=" stroke:none;fill-rule:nonzero;fill:rgb(38.42926%,39.99939%,42.349243%);fill-opacity:1;" d="M 434.140625 664.917969 L 434.46875 668.21875 L 353.039062 619.875 L 353.425781 617.019531 L 434.140625 664.917969 "/>
<path style=" stroke:none;fill-rule:nonzero;fill:rgb(79.998779%,79.998779%,79.998779%);fill-opacity:1;" d="M 353.539062 616.183594 L 424.410156 583.070312 L 505.839844 631.449219 L 434.140625 664.917969 L 353.539062 616.183594 "/>
<path style=" stroke:none;fill-rule:nonzero;fill:rgb(23.919678%,24.308777%,25.878906%);fill-opacity:1;" d="M 414.085938 609.667969 L 414.296875 611.601562 L 405.996094 615.589844 L 405.785156 613.625 L 414.085938 609.667969 "/>
<path style=" stroke:none;fill-rule:nonzero;fill:rgb(17.248535%,17.248535%,17.649841%);fill-opacity:1;" d="M 405.785156 613.625 L 405.996094 615.589844 L 401.550781 612.914062 L 401.339844 610.949219 L 405.785156 613.625 "/>
<path style=" stroke:none;fill-rule:nonzero;fill:rgb(23.919678%,24.308777%,25.878906%);fill-opacity:1;" d="M 426.105469 610.5625 L 426.316406 612.527344 L 420.484375 615.320312 L 420.277344 613.386719 L 426.105469 610.5625 "/>
<path style=" stroke:none;fill-rule:nonzero;fill:rgb(17.248535%,17.248535%,17.649841%);fill-opacity:1;" d="M 420.277344 613.386719 L 420.484375 615.320312 L 414.296875 611.601562 L 414.085938 609.667969 L 420.277344 613.386719 "/>
<path style=" stroke:none;fill-rule:nonzero;fill:rgb(17.248535%,17.248535%,17.649841%);fill-opacity:1;" d="M 412.273438 617.523438 L 412.480469 619.488281 L 407.988281 616.78125 L 407.78125 614.847656 L 412.273438 617.523438 "/>
<path style=" stroke:none;fill-rule:nonzero;fill:rgb(23.919678%,24.308777%,25.878906%);fill-opacity:1;" d="M 418.105469 614.726562 L 418.3125 616.691406 L 412.480469 619.488281 L 412.273438 617.523438 L 418.105469 614.726562 "/>
<path style=" stroke:none;fill-rule:nonzero;fill:rgb(23.919678%,24.308777%,25.878906%);fill-opacity:1;" d="M 403.316406 614.816406 L 403.527344 616.75 L 397.691406 619.546875 L 397.484375 617.613281 L 403.316406 614.816406 "/>
<path style=" stroke:none;fill-rule:nonzero;fill:rgb(17.248535%,17.248535%,17.649841%);fill-opacity:1;" d="M 397.484375 617.613281 L 397.691406 619.546875 L 393.265625 616.898438 L 393.042969 614.933594 L 397.484375 617.613281 "/>
<path style=" stroke:none;fill-rule:nonzero;fill:rgb(23.919678%,24.308777%,25.878906%);fill-opacity:1;" d="M 394.972656 618.804688 L 395.179688 620.765625 L 389.347656 623.5625 L 389.136719 621.601562 L 394.972656 618.804688 "/>
<path style=" stroke:none;fill-rule:nonzero;fill:rgb(17.248535%,17.248535%,17.649841%);fill-opacity:1;" d="M 389.136719 621.601562 L 389.347656 623.5625 L 384.90625 620.886719 L 384.6875 618.953125 L 389.136719 621.601562 "/>
<path style=" stroke:none;fill-rule:nonzero;fill:rgb(23.919678%,24.308777%,25.878906%);fill-opacity:1;" d="M 409.804688 618.714844 L 410.011719 620.675781 L 404.1875 623.472656 L 403.96875 621.511719 L 409.804688 618.714844 "/>
<path style=" stroke:none;fill-rule:nonzero;fill:rgb(17.248535%,17.248535%,17.649841%);fill-opacity:1;" d="M 403.96875 621.511719 L 404.1875 623.472656 L 399.703125 620.765625 L 399.496094 618.804688 L 403.96875 621.511719 "/>
<path style=" stroke:none;fill-rule:nonzero;fill:rgb(23.919678%,24.308777%,25.878906%);fill-opacity:1;" d="M 401.457031 622.699219 L 401.667969 624.664062 L 395.832031 627.460938 L 395.625 625.496094 L 401.457031 622.699219 "/>
<path style=" stroke:none;fill-rule:nonzero;fill:rgb(17.248535%,17.248535%,17.649841%);fill-opacity:1;" d="M 395.625 625.496094 L 395.832031 627.460938 L 391.355469 624.753906 L 391.136719 622.820312 L 395.625 625.496094 "/>
<path style=" stroke:none;fill-rule:nonzero;fill:rgb(23.919678%,24.308777%,25.878906%);fill-opacity:1;" d="M 432.859375 614.636719 L 433.070312 616.570312 L 427.238281 619.398438 L 427 617.433594 L 432.859375 614.636719 "/>
<path style=" stroke:none;fill-rule:nonzero;fill:rgb(17.248535%,17.248535%,17.649841%);fill-opacity:1;" d="M 427 617.433594 L 427.238281 619.398438 L 422.746094 616.691406 L 422.535156 614.726562 L 427 617.433594 "/>
<path style=" stroke:none;fill-rule:nonzero;fill:rgb(23.919678%,24.308777%,25.878906%);fill-opacity:1;" d="M 424.558594 618.59375 L 424.769531 620.558594 L 418.9375 623.386719 L 418.730469 621.421875 L 424.558594 618.59375 "/>
<path style=" stroke:none;fill-rule:nonzero;fill:rgb(17.248535%,17.248535%,17.649841%);fill-opacity:1;" d="M 418.730469 621.421875 L 418.9375 623.386719 L 414.445312 620.675781 L 414.234375 618.714844 L 418.730469 621.421875 "/>
<path style=" stroke:none;fill-rule:nonzero;fill:rgb(23.919678%,24.308777%,25.878906%);fill-opacity:1;" d="M 416.257812 622.582031 L 416.46875 624.546875 L 410.636719 627.339844 L 410.429688 625.378906 L 416.257812 622.582031 "/>
<path style=" stroke:none;fill-rule:nonzero;fill:rgb(17.248535%,17.248535%,17.649841%);fill-opacity:1;" d="M 410.429688 625.378906 L 410.636719 627.339844 L 406.144531 624.664062 L 405.933594 622.699219 L 410.429688 625.378906 "/>
<path style=" stroke:none;fill-rule:nonzero;fill:rgb(23.919678%,24.308777%,25.878906%);fill-opacity:1;" d="M 407.898438 626.597656 L 408.105469 628.53125 L 402.28125 631.328125 L 402.074219 629.394531 L 407.898438 626.597656 "/>
<path style=" stroke:none;fill-rule:nonzero;fill:rgb(17.248535%,17.248535%,17.649841%);fill-opacity:1;" d="M 402.074219 629.394531 L 402.28125 631.328125 L 397.796875 628.652344 L 397.585938 626.6875 L 402.074219 629.394531 "/>
<path style=" stroke:none;fill-rule:nonzero;fill:rgb(23.919678%,24.308777%,25.878906%);fill-opacity:1;" d="M 439.285156 618.503906 L 439.523438 620.46875 L 433.664062 623.265625 L 433.457031 621.300781 L 439.285156 618.503906 "/>
<path style=" stroke:none;fill-rule:nonzero;fill:rgb(17.248535%,17.248535%,17.649841%);fill-opacity:1;" d="M 433.457031 621.300781 L 433.664062 623.265625 L 429.203125 620.558594 L 428.992188 618.59375 L 433.457031 621.300781 "/>
<path style=" stroke:none;fill-rule:nonzero;fill:rgb(23.919678%,24.308777%,25.878906%);fill-opacity:1;" d="M 430.984375 622.492188 L 431.222656 624.425781 L 425.394531 627.253906 L 425.15625 625.289062 L 430.984375 622.492188 "/>
<path style=" stroke:none;fill-rule:nonzero;fill:rgb(17.248535%,17.248535%,17.649841%);fill-opacity:1;" d="M 425.15625 625.289062 L 425.394531 627.253906 L 420.902344 624.546875 L 420.691406 622.582031 L 425.15625 625.289062 "/>
<path style=" stroke:none;fill-rule:nonzero;fill:rgb(23.919678%,24.308777%,25.878906%);fill-opacity:1;" d="M 422.714844 626.449219 L 422.921875 628.414062 L 417.0625 631.210938 L 416.855469 629.246094 L 422.714844 626.449219 "/>
<path style=" stroke:none;fill-rule:nonzero;fill:rgb(17.248535%,17.248535%,17.649841%);fill-opacity:1;" d="M 416.855469 629.246094 L 417.0625 631.210938 L 412.601562 628.53125 L 412.390625 626.566406 L 416.855469 629.246094 "/>
<path style=" stroke:none;fill-rule:nonzero;fill:rgb(23.919678%,24.308777%,25.878906%);fill-opacity:1;" d="M 414.355469 630.464844 L 414.5625 632.398438 L 408.730469 635.226562 L 408.523438 633.261719 L 414.355469 630.464844 "/>
<path style=" stroke:none;fill-rule:nonzero;fill:rgb(17.248535%,17.248535%,17.649841%);fill-opacity:1;" d="M 408.523438 633.261719 L 408.730469 635.226562 L 404.246094 632.519531 L 404.039062 630.554688 L 408.523438 633.261719 "/>
<path style=" stroke:none;fill-rule:nonzero;fill:rgb(23.919678%,24.308777%,25.878906%);fill-opacity:1;" d="M 464.308594 633.53125 L 464.515625 635.492188 L 458.683594 638.289062 L 458.476562 636.328125 L 464.308594 633.53125 "/>
<path style=" stroke:none;fill-rule:nonzero;fill:rgb(17.248535%,17.248535%,17.649841%);fill-opacity:1;" d="M 458.476562 636.328125 L 458.683594 638.289062 L 435.6875 624.484375 L 435.480469 622.523438 L 458.476562 636.328125 "/>
<path style=" stroke:none;fill-rule:nonzero;fill:rgb(23.919678%,24.308777%,25.878906%);fill-opacity:1;" d="M 437.441406 626.359375 L 437.679688 628.324219 L 431.820312 631.121094 L 431.609375 629.15625 L 437.441406 626.359375 "/>
<path style=" stroke:none;fill-rule:nonzero;fill:rgb(17.248535%,17.248535%,17.649841%);fill-opacity:1;" d="M 431.609375 629.15625 L 431.820312 631.121094 L 427.386719 628.441406 L 427.179688 626.480469 L 431.609375 629.15625 "/>
<path style=" stroke:none;fill-rule:nonzero;fill:rgb(23.919678%,24.308777%,25.878906%);fill-opacity:1;" d="M 429.140625 630.347656 L 429.378906 632.308594 L 423.519531 635.078125 L 423.308594 633.113281 L 429.140625 630.347656 "/>
<path style=" stroke:none;fill-rule:nonzero;fill:rgb(17.248535%,17.248535%,17.649841%);fill-opacity:1;" d="M 423.308594 633.113281 L 423.519531 635.078125 L 419.085938 632.429688 L 418.878906 630.464844 L 423.308594 633.113281 "/>
<path style=" stroke:none;fill-rule:nonzero;fill:rgb(23.919678%,24.308777%,25.878906%);fill-opacity:1;" d="M 420.8125 634.332031 L 421.019531 636.296875 L 415.160156 639.09375 L 414.949219 637.128906 L 420.8125 634.332031 "/>
<path style=" stroke:none;fill-rule:nonzero;fill:rgb(17.248535%,17.248535%,17.649841%);fill-opacity:1;" d="M 414.949219 637.128906 L 415.160156 639.09375 L 410.753906 636.414062 L 410.515625 634.453125 L 414.949219 637.128906 "/>
<path style=" stroke:none;fill-rule:nonzero;fill:rgb(23.919678%,24.308777%,25.878906%);fill-opacity:1;" d="M 443.957031 630.257812 L 444.167969 632.222656 L 438.335938 635.019531 L 438.097656 633.054688 L 443.957031 630.257812 "/>
<path style=" stroke:none;fill-rule:nonzero;fill:rgb(17.248535%,17.248535%,17.649841%);fill-opacity:1;" d="M 438.097656 633.054688 L 438.335938 635.019531 L 433.84375 632.308594 L 433.632812 630.347656 L 438.097656 633.054688 "/>
<path style=" stroke:none;fill-rule:nonzero;fill:rgb(23.919678%,24.308777%,25.878906%);fill-opacity:1;" d="M 435.65625 634.214844 L 435.867188 636.179688 L 430.003906 639.003906 L 429.796875 637.039062 L 435.65625 634.214844 "/>
<path style=" stroke:none;fill-rule:nonzero;fill:rgb(17.248535%,17.248535%,17.649841%);fill-opacity:1;" d="M 429.796875 637.039062 L 430.003906 639.003906 L 425.542969 636.296875 L 425.332031 634.332031 L 429.796875 637.039062 "/>
<path style=" stroke:none;fill-rule:nonzero;fill:rgb(23.919678%,24.308777%,25.878906%);fill-opacity:1;" d="M 427.296875 638.230469 L 427.503906 640.195312 L 421.675781 642.992188 L 421.464844 641.027344 L 427.296875 638.230469 "/>
<path style=" stroke:none;fill-rule:nonzero;fill:rgb(17.248535%,17.248535%,17.649841%);fill-opacity:1;" d="M 421.464844 641.027344 L 421.675781 642.992188 L 417.179688 640.3125 L 416.972656 638.351562 L 421.464844 641.027344 "/>
<path style=" stroke:none;fill-rule:nonzero;fill:rgb(23.919678%,24.308777%,25.878906%);fill-opacity:1;" d="M 450.382812 634.125 L 450.59375 636.089844 L 444.761719 638.886719 L 444.554688 636.921875 L 450.382812 634.125 "/>
<path style=" stroke:none;fill-rule:nonzero;fill:rgb(17.248535%,17.248535%,17.649841%);fill-opacity:1;" d="M 444.554688 636.921875 L 444.761719 638.886719 L 440.296875 636.207031 L 440.089844 634.214844 L 444.554688 636.921875 "/>
<path style=" stroke:none;fill-rule:nonzero;fill:rgb(23.919678%,24.308777%,25.878906%);fill-opacity:1;" d="M 442.082031 638.113281 L 442.320312 640.074219 L 436.460938 642.871094 L 436.253906 640.910156 L 442.082031 638.113281 "/>
<path style=" stroke:none;fill-rule:nonzero;fill:rgb(17.248535%,17.248535%,17.649841%);fill-opacity:1;" d="M 436.253906 640.910156 L 436.460938 642.871094 L 431.996094 640.164062 L 431.789062 638.199219 L 436.253906 640.910156 "/>
<path style=" stroke:none;fill-rule:nonzero;fill:rgb(23.919678%,24.308777%,25.878906%);fill-opacity:1;" d="M 433.753906 642.097656 L 433.960938 644.0625 L 428.128906 646.859375 L 427.921875 644.894531 L 433.753906 642.097656 "/>
<path style=" stroke:none;fill-rule:nonzero;fill:rgb(17.248535%,17.248535%,17.649841%);fill-opacity:1;" d="M 427.921875 644.894531 L 428.128906 646.859375 L 423.636719 644.179688 L 423.429688 642.21875 L 427.921875 644.894531 "/>
<path style=" stroke:none;fill-rule:nonzero;fill:rgb(23.919678%,24.308777%,25.878906%);fill-opacity:1;" d="M 456.839844 637.992188 L 457.046875 639.957031 L 451.21875 642.78125 L 451.007812 640.789062 L 456.839844 637.992188 "/>
<path style=" stroke:none;fill-rule:nonzero;fill:rgb(17.248535%,17.248535%,17.649841%);fill-opacity:1;" d="M 451.007812 640.789062 L 451.21875 642.78125 L 446.726562 640.074219 L 446.515625 638.113281 L 451.007812 640.789062 "/>
<path style=" stroke:none;fill-rule:nonzero;fill:rgb(23.919678%,24.308777%,25.878906%);fill-opacity:1;" d="M 448.539062 641.980469 L 448.746094 643.941406 L 442.917969 646.738281 L 442.707031 644.777344 L 448.539062 641.980469 "/>
<path style=" stroke:none;fill-rule:nonzero;fill:rgb(17.248535%,17.248535%,17.649841%);fill-opacity:1;" d="M 442.707031 644.777344 L 442.917969 646.738281 L 438.425781 644.03125 L 438.214844 642.070312 L 442.707031 644.777344 "/>
<path style=" stroke:none;fill-rule:nonzero;fill:rgb(23.919678%,24.308777%,25.878906%);fill-opacity:1;" d="M 440.179688 645.964844 L 440.386719 647.929688 L 434.554688 650.726562 L 434.347656 648.792969 L 440.179688 645.964844 "/>
<path style=" stroke:none;fill-rule:nonzero;fill:rgb(17.248535%,17.248535%,17.649841%);fill-opacity:1;" d="M 434.347656 648.792969 L 434.554688 650.726562 L 430.09375 648.050781 L 429.886719 646.085938 L 434.347656 648.792969 "/>
<path style=" stroke:none;fill-rule:nonzero;fill:rgb(23.919678%,24.308777%,25.878906%);fill-opacity:1;" d="M 471.625 637.933594 L 471.835938 639.898438 L 466.003906 642.695312 L 465.796875 640.730469 L 471.625 637.933594 "/>
<path style=" stroke:none;fill-rule:nonzero;fill:rgb(17.248535%,17.248535%,17.649841%);fill-opacity:1;" d="M 465.796875 640.730469 L 466.003906 642.695312 L 461.511719 639.984375 L 461.304688 638.050781 L 465.796875 640.730469 "/>
<path style=" stroke:none;fill-rule:nonzero;fill:rgb(23.919678%,24.308777%,25.878906%);fill-opacity:1;" d="M 463.328125 641.921875 L 463.5625 643.855469 L 457.703125 646.652344 L 457.496094 644.6875 L 463.328125 641.921875 "/>
<path style=" stroke:none;fill-rule:nonzero;fill:rgb(17.248535%,17.248535%,17.649841%);fill-opacity:1;" d="M 457.496094 644.6875 L 457.703125 646.652344 L 453.210938 643.972656 L 453.003906 642.007812 L 457.496094 644.6875 "/>
<path style=" stroke:none;fill-rule:nonzero;fill:rgb(23.919678%,24.308777%,25.878906%);fill-opacity:1;" d="M 455.027344 645.878906 L 455.234375 647.839844 L 449.402344 650.636719 L 449.195312 648.671875 L 455.027344 645.878906 "/>
<path style=" stroke:none;fill-rule:nonzero;fill:rgb(17.248535%,17.248535%,17.649841%);fill-opacity:1;" d="M 449.195312 648.671875 L 449.402344 650.636719 L 444.910156 647.929688 L 444.730469 645.996094 L 449.195312 648.671875 "/>
<path style=" stroke:none;fill-rule:nonzero;fill:rgb(23.919678%,24.308777%,25.878906%);fill-opacity:1;" d="M 446.664062 649.894531 L 446.902344 651.855469 L 441.070312 654.652344 L 440.835938 652.691406 L 446.664062 649.894531 "/>
<path style=" stroke:none;fill-rule:nonzero;fill:rgb(17.248535%,17.248535%,17.649841%);fill-opacity:1;" d="M 440.835938 652.691406 L 441.070312 654.652344 L 436.578125 651.945312 L 436.371094 649.984375 L 440.835938 652.691406 "/>
<path style=" stroke:none;fill-rule:nonzero;fill:rgb(9.799194%,9.799194%,9.799194%);fill-opacity:1;" d="M 401.34375 610.949219 L 409.625 606.992188 L 413.789062 605 L 415.484375 604.195312 L 418.609375 606.070312 L 419.917969 606.84375 L 426.105469 610.5625 L 420.277344 613.386719 L 414.085938 609.667969 L 405.785156 613.625 L 401.34375 610.949219 "/>
<path style=" stroke:none;fill-rule:nonzero;fill:rgb(9.799194%,9.799194%,9.799194%);fill-opacity:1;" d="M 407.78125 614.847656 L 413.613281 612.050781 L 418.105469 614.726562 L 412.273438 617.523438 L 407.78125 614.847656 "/>
<path style=" stroke:none;fill-rule:nonzero;fill:rgb(9.799194%,9.799194%,9.799194%);fill-opacity:1;" d="M 393.042969 614.933594 L 398.878906 612.140625 L 403.316406 614.816406 L 397.484375 617.613281 L 393.042969 614.933594 "/>
<path style=" stroke:none;fill-rule:nonzero;fill:rgb(9.799194%,9.799194%,9.799194%);fill-opacity:1;" d="M 384.6875 618.953125 L 390.53125 616.15625 L 394.972656 618.804688 L 389.136719 621.601562 L 384.6875 618.953125 "/>
<path style=" stroke:none;fill-rule:nonzero;fill:rgb(9.799194%,9.799194%,9.799194%);fill-opacity:1;" d="M 399.496094 618.804688 L 405.339844 616.007812 L 409.804688 618.714844 L 403.96875 621.511719 L 399.496094 618.804688 "/>
<path style=" stroke:none;fill-rule:nonzero;fill:rgb(9.799194%,9.799194%,9.799194%);fill-opacity:1;" d="M 391.136719 622.820312 L 396.984375 620.023438 L 401.457031 622.699219 L 395.625 625.496094 L 391.136719 622.820312 "/>
<path style=" stroke:none;fill-rule:nonzero;fill:rgb(9.799194%,9.799194%,9.799194%);fill-opacity:1;" d="M 422.535156 614.726562 L 428.367188 611.929688 L 432.859375 614.636719 L 427 617.433594 L 422.535156 614.726562 "/>
<path style=" stroke:none;fill-rule:nonzero;fill:rgb(9.799194%,9.799194%,9.799194%);fill-opacity:1;" d="M 414.234375 618.714844 L 420.066406 615.917969 L 424.558594 618.59375 L 418.730469 621.421875 L 414.234375 618.714844 "/>
<path style=" stroke:none;fill-rule:nonzero;fill:rgb(9.799194%,9.799194%,9.799194%);fill-opacity:1;" d="M 405.933594 622.699219 L 411.765625 619.875 L 416.257812 622.582031 L 410.429688 625.378906 L 405.933594 622.699219 "/>
<path style=" stroke:none;fill-rule:nonzero;fill:rgb(9.799194%,9.799194%,9.799194%);fill-opacity:1;" d="M 397.585938 626.6875 L 403.433594 623.890625 L 407.898438 626.597656 L 402.074219 629.394531 L 397.585938 626.6875 "/>
<path style=" stroke:none;fill-rule:nonzero;fill:rgb(9.799194%,9.799194%,9.799194%);fill-opacity:1;" d="M 428.992188 618.59375 L 434.824219 615.828125 L 439.285156 618.503906 L 433.457031 621.300781 L 428.992188 618.59375 "/>
<path style=" stroke:none;fill-rule:nonzero;fill:rgb(9.799194%,9.799194%,9.799194%);fill-opacity:1;" d="M 420.691406 622.582031 L 426.523438 619.785156 L 430.984375 622.492188 L 425.15625 625.289062 L 420.691406 622.582031 "/>
<path style=" stroke:none;fill-rule:nonzero;fill:rgb(9.799194%,9.799194%,9.799194%);fill-opacity:1;" d="M 412.390625 626.566406 L 418.222656 623.773438 L 422.714844 626.449219 L 416.855469 629.246094 L 412.390625 626.566406 "/>
<path style=" stroke:none;fill-rule:nonzero;fill:rgb(9.799194%,9.799194%,9.799194%);fill-opacity:1;" d="M 404.039062 630.554688 L 409.890625 627.757812 L 414.355469 630.464844 L 408.523438 633.261719 L 404.039062 630.554688 "/>
<path style=" stroke:none;fill-rule:nonzero;fill:rgb(9.799194%,9.799194%,9.799194%);fill-opacity:1;" d="M 435.480469 622.523438 L 441.308594 619.726562 L 464.308594 633.53125 L 458.476562 636.328125 L 435.480469 622.523438 "/>
<path style=" stroke:none;fill-rule:nonzero;fill:rgb(9.799194%,9.799194%,9.799194%);fill-opacity:1;" d="M 427.179688 626.480469 L 433.007812 623.710938 L 437.441406 626.359375 L 431.609375 629.15625 L 427.179688 626.480469 "/>
<path style=" stroke:none;fill-rule:nonzero;fill:rgb(9.799194%,9.799194%,9.799194%);fill-opacity:1;" d="M 418.878906 630.464844 L 424.707031 627.667969 L 429.140625 630.347656 L 423.308594 633.113281 L 418.878906 630.464844 "/>
<path style=" stroke:none;fill-rule:nonzero;fill:rgb(9.799194%,9.799194%,9.799194%);fill-opacity:1;" d="M 410.515625 634.453125 L 416.378906 631.65625 L 420.8125 634.332031 L 414.949219 637.128906 L 410.515625 634.453125 "/>
<path style=" stroke:none;fill-rule:nonzero;fill:rgb(9.799194%,9.799194%,9.799194%);fill-opacity:1;" d="M 433.632812 630.347656 L 439.464844 627.550781 L 443.957031 630.257812 L 438.097656 633.054688 L 433.632812 630.347656 "/>
<path style=" stroke:none;fill-rule:nonzero;fill:rgb(9.799194%,9.799194%,9.799194%);fill-opacity:1;" d="M 425.332031 634.332031 L 431.164062 631.535156 L 435.65625 634.214844 L 429.796875 637.039062 L 425.332031 634.332031 "/>
<path style=" stroke:none;fill-rule:nonzero;fill:rgb(9.799194%,9.799194%,9.799194%);fill-opacity:1;" d="M 416.972656 638.351562 L 422.804688 635.554688 L 427.296875 638.230469 L 421.464844 641.027344 L 416.972656 638.351562 "/>
<path style=" stroke:none;fill-rule:nonzero;fill:rgb(9.799194%,9.799194%,9.799194%);fill-opacity:1;" d="M 440.089844 634.214844 L 445.921875 631.449219 L 450.382812 634.125 L 444.554688 636.921875 L 440.089844 634.214844 "/>
<path style=" stroke:none;fill-rule:nonzero;fill:rgb(9.799194%,9.799194%,9.799194%);fill-opacity:1;" d="M 431.789062 638.199219 L 437.621094 635.40625 L 442.082031 638.113281 L 436.253906 640.910156 L 431.789062 638.199219 "/>
<path style=" stroke:none;fill-rule:nonzero;fill:rgb(9.799194%,9.799194%,9.799194%);fill-opacity:1;" d="M 423.429688 642.21875 L 429.261719 639.421875 L 433.753906 642.097656 L 427.921875 644.894531 L 423.429688 642.21875 "/>
<path style=" stroke:none;fill-rule:nonzero;fill:rgb(9.799194%,9.799194%,9.799194%);fill-opacity:1;" d="M 446.515625 638.113281 L 452.347656 635.316406 L 456.839844 637.992188 L 451.007812 640.789062 L 446.515625 638.113281 "/>
<path style=" stroke:none;fill-rule:nonzero;fill:rgb(9.799194%,9.799194%,9.799194%);fill-opacity:1;" d="M 438.214844 642.070312 L 444.078125 639.273438 L 448.539062 641.980469 L 442.707031 644.777344 L 438.214844 642.070312 "/>
<path style=" stroke:none;fill-rule:nonzero;fill:rgb(9.799194%,9.799194%,9.799194%);fill-opacity:1;" d="M 429.886719 646.085938 L 435.714844 643.289062 L 440.179688 645.964844 L 434.347656 648.792969 L 429.886719 646.085938 "/>
<path style=" stroke:none;fill-rule:nonzero;fill:rgb(9.799194%,9.799194%,9.799194%);fill-opacity:1;" d="M 461.304688 638.050781 L 467.132812 635.226562 L 471.625 637.933594 L 465.796875 640.730469 L 461.304688 638.050781 "/>
<path style=" stroke:none;fill-rule:nonzero;fill:rgb(9.799194%,9.799194%,9.799194%);fill-opacity:1;" d="M 453.003906 642.007812 L 458.863281 639.210938 L 463.328125 641.921875 L 457.496094 644.6875 L 453.003906 642.007812 "/>
<path style=" stroke:none;fill-rule:nonzero;fill:rgb(9.799194%,9.799194%,9.799194%);fill-opacity:1;" d="M 444.730469 645.996094 L 450.5625 643.199219 L 455.027344 645.878906 L 449.195312 648.671875 L 444.730469 645.996094 "/>
<path style=" stroke:none;fill-rule:nonzero;fill:rgb(9.799194%,9.799194%,9.799194%);fill-opacity:1;" d="M 436.371094 649.984375 L 442.203125 647.1875 L 446.664062 649.894531 L 440.835938 652.691406 L 436.371094 649.984375 "/>
<path style=" stroke:none;fill-rule:nonzero;fill:rgb(52.938843%,54.119873%,56.079102%);fill-opacity:1;" d="M 442.589844 612.761719 C 441.996094 612.40625 442.203125 611.8125 442.917969 611.484375 L 444.492188 610.710938 L 460.945312 620.617188 L 459.371094 621.363281 C 458.65625 621.6875 457.554688 621.75 457.019531 621.421875 L 442.589844 612.761719 "/>
<path style=" stroke:none;fill-rule:nonzero;fill:rgb(39.99939%,41.178894%,43.919373%);fill-opacity:1;" d="M 444.492188 610.710938 L 453.121094 606.574219 C 453.894531 606.21875 454.9375 606.21875 455.53125 606.546875 L 469.929688 615.203125 C 470.464844 615.558594 470.347656 616.09375 469.574219 616.484375 L 460.945312 620.617188 L 444.492188 610.710938 "/>
<path style=" stroke:none;fill-rule:nonzero;fill:rgb(97.648621%,71.759033%,62.748718%);fill-opacity:1;" d="M 462.375 598.535156 C 462.375 598.535156 450.175781 597.140625 445.652344 598.535156 C 441.132812 599.945312 436.371094 603.300781 436.371094 604.375 C 436.371094 605.414062 439.347656 604.3125 441.667969 604.375 C 444.046875 604.402344 449.371094 603.839844 449.371094 603.839844 C 449.371094 603.839844 430.003906 612.972656 429.5 615.828125 C 428.964844 618.683594 433.457031 628.265625 441.398438 624.8125 C 449.371094 621.332031 460.261719 618 466.09375 615.828125 C 471.894531 613.65625 470.851562 601.191406 462.375 598.535156 "/>
<path style=" stroke:none;fill-rule:nonzero;fill:rgb(97.648621%,71.759033%,62.748718%);fill-opacity:1;" d="M 415.160156 562.21875 C 415.160156 562.21875 423.398438 565.390625 425.78125 569.363281 C 428.160156 573.351562 427.890625 579.453125 425.78125 580.511719 C 423.667969 581.570312 422.6875 574.816406 421.316406 574.082031 C 421.316406 574.082031 428.160156 588.996094 420.214844 590.855469 C 412.242188 592.714844 403.5 592.714844 401.121094 581.035156 C 398.726562 569.363281 402.96875 563.796875 407.75 562.21875 C 412.511719 560.625 415.160156 562.21875 415.160156 562.21875 "/>
<path style=" stroke:none;fill-rule:nonzero;fill:rgb(97.24884%,65.098572%,53.329468%);fill-opacity:1;" d="M 483.320312 477.621094 C 483.320312 477.621094 480.433594 450.753906 478.945312 446.953125 C 477.488281 443.152344 460.261719 461.714844 460.769531 471.269531 C 461.304688 480.808594 461.839844 485.050781 461.839844 485.050781 C 461.839844 485.050781 466.867188 493.265625 473.5 489.023438 C 480.136719 484.796875 483.320312 477.621094 483.320312 477.621094 "/>
<path style=" stroke:none;fill-rule:nonzero;fill:rgb(97.648621%,71.759033%,62.748718%);fill-opacity:1;" d="M 426.851562 430.429688 C 426.851562 430.429688 439.554688 469.671875 442.738281 476.03125 C 445.921875 482.402344 457.078125 481.867188 462.878906 476.03125 C 468.742188 470.195312 480.402344 461.714844 478.796875 443.6875 C 477.21875 425.652344 429.5 402.328125 426.851562 430.429688 "/>
<path style=" stroke:none;fill-rule:nonzero;fill:rgb(39.99939%,23.529053%,19.60907%);fill-opacity:1;" d="M 451.246094 391.542969 C 451.246094 391.542969 438.15625 390.484375 430.003906 394.726562 C 421.882812 398.96875 420.484375 398.609375 423.996094 398.261719 C 427.535156 397.898438 438.871094 396.839844 438.871094 396.839844 C 438.871094 396.839844 428.128906 399.316406 422.179688 407.089844 L 416.230469 414.878906 C 416.230469 414.878906 419.414062 412.042969 423.996094 411.332031 C 428.605469 410.636719 415.871094 419.46875 419.054688 425.488281 C 422.238281 431.488281 424.351562 436.085938 431.789062 439.273438 C 439.199219 442.457031 455.113281 445.28125 457.585938 444.921875 C 460.054688 444.570312 454.429688 442.097656 457.585938 439.96875 C 460.765625 437.855469 461.839844 442.515625 464.664062 444.957031 C 467.492188 447.394531 472.042969 448.988281 472.042969 448.988281 C 472.042969 448.988281 480.820312 456.960938 481.207031 460.085938 C 481.625 463.226562 482.335938 467.1875 484.808594 464.363281 C 487.304688 461.539062 487.632812 459.0625 488.347656 454.125 C 489.0625 449.175781 490.460938 442.097656 490.816406 439.273438 C 491.171875 436.4375 492.957031 450.8125 493.644531 446.457031 C 494.355469 442.097656 495.785156 431.988281 493.644531 428.382812 C 491.53125 424.78125 492.722656 423.363281 494.773438 424.78125 C 496.828125 426.183594 494.714844 384.117188 451.246094 391.542969 "/>
<path style=" stroke:none;fill-rule:nonzero;fill:rgb(97.648621%,71.759033%,62.748718%);fill-opacity:1;" d="M 469.929688 453.136719 C 469.929688 453.136719 465.648438 433.972656 473.410156 433.125 C 481.207031 432.289062 482.515625 450.582031 475.078125 456.949219 L 469.929688 453.136719 "/>
<path style=" stroke:none;fill-rule:nonzero;fill:rgb(74.508667%,74.508667%,74.899292%);fill-opacity:1;" d="M 383.953125 791.09375 C 383.804688 790.707031 380.261719 781.902344 368.777344 785.53125 L 368.476562 784.609375 C 380.863281 780.652344 384.839844 790.617188 384.875 790.738281 L 383.953125 791.09375 "/>
<path style=" stroke:none;fill-rule:nonzero;fill:rgb(74.508667%,74.508667%,74.899292%);fill-opacity:1;" d="M 391.648438 784.398438 C 391.460938 784.101562 386.953125 776.457031 375.019531 779.402344 L 374.773438 778.449219 C 387.488281 775.296875 392.472656 783.835938 392.519531 783.925781 L 391.648438 784.398438 "/>
<path style=" stroke:none;fill-rule:nonzero;fill:rgb(74.508667%,74.508667%,74.899292%);fill-opacity:1;" d="M 395.0625 778.359375 C 395.050781 778.332031 394.402344 775.5625 391.636719 773.957031 C 389.101562 772.5 385.640625 772.410156 381.328125 773.691406 L 381.039062 772.765625 C 385.652344 771.367188 389.382812 771.488281 392.160156 773.125 C 395.300781 774.9375 396.007812 778.003906 396.03125 778.152344 L 395.0625 778.359375 "/>
<path style=" stroke:none;fill-rule:nonzero;fill:rgb(60.778809%,61.178589%,62.748718%);fill-opacity:1;" d="M 435.449219 608.152344 L 441.070312 605.503906 L 439.285156 664.917969 L 434.46875 668.21875 L 435.449219 608.152344 "/>
<path style=" stroke:none;fill-rule:nonzero;fill:rgb(49.409485%,50.979614%,52.938843%);fill-opacity:1;" d="M 352.703125 557.894531 L 358.34375 555.234375 L 441.070312 605.503906 L 435.449219 608.152344 L 352.703125 557.894531 "/>
<path style=" stroke:none;fill-rule:nonzero;fill:rgb(84.709167%,84.709167%,84.309387%);fill-opacity:1;" d="M 435.449219 608.152344 L 434.46875 668.21875 L 352.925781 619.875 L 352.703125 557.894531 L 435.449219 608.152344 "/>
<path style=" stroke:none;fill-rule:nonzero;fill:rgb(74.508667%,74.508667%,74.899292%);fill-opacity:1;" d="M 292.6875 765.6875 L 291.738281 765.390625 C 292.457031 763.21875 292.351562 761.519531 291.445312 760.332031 C 289.703125 758.070312 285.496094 758.308594 285.449219 758.308594 L 285.390625 757.328125 C 285.578125 757.328125 290.15625 757.058594 292.238281 759.734375 C 293.351562 761.195312 293.503906 763.1875 292.6875 765.6875 "/>
<path style=" stroke:none;fill-rule:nonzero;fill:rgb(74.508667%,74.508667%,74.899292%);fill-opacity:1;" d="M 300.265625 759.945312 L 299.328125 759.648438 C 299.753906 758.335938 299.675781 757.296875 299.070312 756.492188 C 297.46875 754.320312 292.761719 754.382812 292.710938 754.382812 L 292.6875 753.398438 C 292.921875 753.371094 297.957031 753.308594 299.871094 755.898438 C 300.664062 756.96875 300.800781 758.335938 300.265625 759.945312 "/>
<path style=" stroke:none;fill-rule:nonzero;fill:rgb(74.508667%,74.508667%,74.899292%);fill-opacity:1;" d="M 306.9375 755.601562 L 305.949219 755.511719 C 306.078125 754.382812 305.808594 753.429688 305.148438 752.683594 C 303.535156 750.839844 300.113281 750.78125 300.082031 750.78125 L 300.09375 749.769531 C 300.253906 749.769531 303.996094 749.886719 305.894531 752.03125 C 306.742188 752.984375 307.089844 754.203125 306.9375 755.601562 "/>
</g>
</svg>